<?xml version="1.0" encoding="UTF-8"?>
<svg width="621px" height="177px" viewBox="0 0 621 177" version="1.1" xmlns="http://www.w3.org/2000/svg" xmlns:xlink="http://www.w3.org/1999/xlink">
    <title>firebase</title>
    <g id="Page-1" stroke="none" stroke-width="1" fill="none" fill-rule="evenodd">
        <g id="firebase" transform="translate(0.300000, 0.987590)" fill="#FFFFFF" fill-rule="nonzero">
            <g id="Group">
                <path d="M4.3,114.91241 L21.7,3.41241029 C22.3,-0.387589711 27.4,-1.28758971 29.2,2.11241029 L47.9,37.1124103 L4.3,114.91241 Z M128,142.01241 L111.4,39.3124103 C110.9,36.1124103 106.9,34.8124103 104.6,37.1124103 L-1.42108547e-14,142.01241 L57.9,174.51241 C61.5,176.51241 66,176.51241 69.6,174.51241 L128,142.01241 Z M81,52.4124103 L67.6,26.9124103 C66.1,24.0124103 62,24.0124103 60.5,26.9124103 L1.6,131.91241 L81,52.4124103 Z" id="icon_1_"></path>
                <g transform="translate(180.200000, 45.412410)">
                    <polygon id="Path" points="11.8 92.6 0 92.6 0 1 53.5 1 53.5 12.3 11.8 12.3 11.8 42.4 49.5 42.4 49.5 53.4 11.9 53.4 11.9 92.6"></polygon>
                    <path d="M73.8,14.2 C72.2,15.8 70.2,16.6 67.9,16.6 C65.6,16.6 63.6,15.8 62,14.2 C60.4,12.6 59.6,10.6 59.6,8.3 C59.6,6 60.4,4 62,2.4 C63.6,0.8 65.6,0 67.9,0 C70.2,0 72.2,0.8 73.8,2.4 C75.4,4 76.2,6 76.2,8.3 C76.2,10.6 75.4,12.5 73.8,14.2 Z M73.8,92.6 L62,92.6 L62,29.9 L73.8,29.9 L73.8,92.6 Z" id="Shape"></path>
                    <path d="M98.4,92.6 L86.6,92.6 L86.6,29.9 L97.9,29.9 L97.9,40.1 L98.4,40.1 C99.6,36.7 102,33.9 105.8,31.7 C109.5,29.5 113.1,28.4 116.6,28.4 C120.1,28.4 123,28.9 125.4,29.9 L120.9,40.9 C119.4,40.3 117.3,40 114.6,40 C110.3,40 106.6,41.7 103.3,45.1 C100,48.5 98.4,52.9 98.4,58.3 L98.4,92.6 Z" id="Path"></path>
                    <path d="M153.8,94.7 C144.3,94.7 136.6,91.5 130.7,85.2 C124.8,78.9 121.8,70.9 121.8,61.3 C121.8,52.2 124.7,44.3 130.4,37.7 C136.2,31.1 143.5,27.8 152.5,27.8 C161.8,27.8 169.2,30.8 174.8,36.9 C180.4,43 183.2,51.1 183.2,61.2 L183.1,63.4 L133.6,63.4 C133.9,69.7 136.1,74.7 139.9,78.4 C143.8,82.1 148.3,83.9 153.5,83.9 C161.9,83.9 167.7,80.3 170.7,73.1 L181.2,77.5 C179.2,82.4 175.8,86.4 171.1,89.7 C166.4,93 160.6,94.7 153.8,94.7 Z M170.7,53.7 C170.4,50.1 168.8,46.7 165.8,43.5 C162.8,40.3 158.3,38.6 152.3,38.6 C147.9,38.6 144.2,40 141,42.7 C137.8,45.4 135.6,49.1 134.4,53.7 L170.7,53.7 Z" id="Shape"></path>
                    <path d="M224.6,94.7 C219.8,94.7 215.5,93.7 211.7,91.6 C207.9,89.6 205.1,87 203.2,83.9 L202.7,83.9 L202.7,92.6 L191.4,92.6 L191.4,1 L203.2,1 L203.2,29.9 L202.7,38.6 L203.2,38.6 C205.1,35.5 207.9,33 211.7,30.9 C215.5,28.9 219.8,27.8 224.6,27.8 C232.7,27.8 239.7,31 245.6,37.4 C251.5,43.8 254.4,51.7 254.4,61.2 C254.4,70.7 251.5,78.6 245.6,85 C239.7,91.5 232.7,94.7 224.6,94.7 Z M222.6,83.9 C228.1,83.9 232.8,81.8 236.7,77.7 C240.6,73.6 242.6,68.1 242.6,61.3 C242.6,54.5 240.6,49 236.7,44.9 C232.8,40.8 228.1,38.7 222.6,38.7 C217.1,38.7 212.3,40.7 208.5,44.8 C204.7,48.9 202.7,54.4 202.7,61.3 C202.7,68.2 204.6,73.7 208.5,77.8 C212.4,81.9 217.1,83.9 222.6,83.9 Z" id="Shape"></path>
                    <path d="M283.7,94.7 C277,94.7 271.5,92.8 267,88.9 C262.5,85.1 260.3,80 260.3,73.7 C260.3,66.9 262.9,61.5 268.2,57.6 C273.5,53.7 280,51.8 287.8,51.8 C294.7,51.8 300.4,53.1 304.8,55.6 L304.8,53.8 C304.8,49.2 303.2,45.5 300.1,42.7 C296.9,39.9 293.1,38.5 288.5,38.5 C285.1,38.5 282,39.3 279.2,40.9 C276.4,42.5 274.5,44.7 273.5,47.6 L262.7,43 C264.2,39.2 267,35.8 271.3,32.6 C275.6,29.4 281.2,27.8 288.2,27.8 C296.2,27.8 302.9,30.1 308.2,34.8 C313.5,39.5 316.1,46.1 316.1,54.6 L316.1,92.6 L304.8,92.6 L304.8,83.9 L304.3,83.9 C299.6,91.1 292.7,94.7 283.7,94.7 Z M285.6,83.9 C290.5,83.9 294.9,82.1 298.8,78.5 C302.8,74.9 304.8,70.6 304.8,65.6 C301.5,62.9 296.5,61.5 289.8,61.5 C284.1,61.5 279.8,62.7 276.9,65.2 C274,67.7 272.5,70.6 272.5,73.9 C272.5,77 273.8,79.4 276.5,81.2 C279.2,83 282.2,83.9 285.6,83.9 Z" id="Shape"></path>
                    <path d="M348.8,94.7 C341.8,94.7 336,93 331.5,89.6 C326.9,86.2 323.6,81.9 321.5,76.8 L332,72.4 C335.3,80.3 341,84.2 349,84.2 C352.7,84.2 355.7,83.4 358,81.8 C360.3,80.2 361.5,78 361.5,75.4 C361.5,71.3 358.6,68.5 352.9,67.1 L340.2,64 C336.2,63 332.4,61 328.8,58.2 C325.2,55.3 323.4,51.5 323.4,46.6 C323.4,41.1 325.9,36.6 330.8,33.1 C335.7,29.6 341.5,27.9 348.3,27.9 C353.8,27.9 358.8,29.2 363.1,31.7 C367.5,34.2 370.6,37.8 372.4,42.5 L362.2,46.7 C359.9,41.2 355.1,38.4 347.9,38.4 C344.4,38.4 341.5,39.1 339.1,40.6 C336.7,42.1 335.5,44 335.5,46.5 C335.5,50.1 338.3,52.5 343.8,53.8 L356.2,56.7 C362.1,58.1 366.4,60.4 369.3,63.7 C372.1,67 373.5,70.8 373.5,75 C373.5,80.6 371.2,85.3 366.6,89.1 C362,92.9 356.1,94.7 348.8,94.7 Z" id="Path"></path>
                    <path d="M410.3,94.7 C400.8,94.7 393.1,91.5 387.2,85.2 C381.3,78.9 378.3,70.9 378.3,61.3 C378.3,52.2 381.2,44.3 386.9,37.7 C392.7,31.1 400,27.8 409,27.8 C418.3,27.8 425.7,30.8 431.3,36.9 C436.9,43 439.7,51.1 439.7,61.2 L439.6,63.4 L390.1,63.4 C390.4,69.7 392.6,74.7 396.4,78.4 C400.3,82.1 404.8,83.9 410,83.9 C418.4,83.9 424.2,80.3 427.2,73.1 L437.7,77.5 C435.7,82.4 432.3,86.4 427.6,89.7 C422.9,93 417.1,94.7 410.3,94.7 Z M427.2,53.7 C426.9,50.1 425.3,46.7 422.3,43.5 C419.3,40.3 414.8,38.6 408.8,38.6 C404.4,38.6 400.7,40 397.5,42.7 C394.3,45.4 392.1,49.1 390.9,53.7 L427.2,53.7 Z" id="Shape"></path>
                </g>
            </g>
        </g>
    </g>
</svg>